osim_states
version=1
nRows=4
nColumns=185
inDegrees=yes

# SIMM Motion File Header:
name osim_states
datacolumns 185
datarows 4
otherdata 1
range 0.03405044 0.03426535
endheader
time	platform_rx	platform_ry	platform_rz	platform_ty	pelvis_tilt	pelvis_list	pelvis_rotation	pelvis_tx	pelvis_ty	pelvis_tz	hip_flexion_r	hip_adduction_r	hip_rotation_r	knee_angle_r	patella_r_constrained_knee_angle	ankle_angle_r	subtalar_angle_r	mtp_angle_r	hip_flexion_l	hip_adduction_l	hip_rotation_l	knee_angle_l	patella_l_constrained_knee_angle	ankle_angle_l	subtalar_angle_l	mtp_angle_l	lumbar_extension	lumbar_bending	lumbar_rotation	arm_flex_r	arm_add_r	arm_rot_r	elbow_flex_r	pro_sup_r	wrist_flex_r	wrist_dev_r	arm_flex_l	arm_add_l	arm_rot_l	elbow_flex_l	pro_sup_l	wrist_flex_l	wrist_dev_l	platform_rx_u	platform_ry_u	platform_rz_u	platform_ty_u	pelvis_tilt_u	pelvis_list_u	pelvis_rotation_u	pelvis_tx_u	pelvis_ty_u	pelvis_tz_u	hip_flexion_r_u	hip_adduction_r_u	hip_rotation_r_u	knee_angle_r_u	patella_r_constrained_knee_angle_u	ankle_angle_r_u	subtalar_angle_r_u	mtp_angle_r_u	hip_flexion_l_u	hip_adduction_l_u	hip_rotation_l_u	knee_angle_l_u	patella_l_constrained_knee_angle_u	ankle_angle_l_u	subtalar_angle_l_u	mtp_angle_l_u	lumbar_extension_u	lumbar_bending_u	lumbar_rotation_u	arm_flex_r_u	arm_add_r_u	arm_rot_r_u	elbow_flex_r_u	pro_sup_r_u	wrist_flex_r_u	wrist_dev_r_u	arm_flex_l_u	arm_add_l_u	arm_rot_l_u	elbow_flex_l_u	pro_sup_l_u	wrist_flex_l_u	wrist_dev_l_u	glut_med1_r.activation	glut_med1_r.fiber_length	glut_med2_r.activation	glut_med2_r.fiber_length	glut_med3_r.activation	glut_med3_r.fiber_length	glut_min1_r.activation	glut_min1_r.fiber_length	glut_min2_r.activation	glut_min2_r.fiber_length	glut_min3_r.activation	glut_min3_r.fiber_length	semimem_r.activation	semimem_r.fiber_length	semiten_r.activation	semiten_r.fiber_length	bifemlh_r.activation	bifemlh_r.fiber_length	bifemsh_r.activation	bifemsh_r.fiber_length	sar_r.activation	sar_r.fiber_length	add_long_r.activation	add_long_r.fiber_length	add_brev_r.activation	add_brev_r.fiber_length	add_mag1_r.activation	add_mag1_r.fiber_length	add_mag2_r.activation	add_mag2_r.fiber_length	add_mag3_r.activation	add_mag3_r.fiber_length	tfl_r.activation	tfl_r.fiber_length	pect_r.activation	pect_r.fiber_length	grac_r.activation	grac_r.fiber_length	glut_max1_r.activation	glut_max1_r.fiber_length	glut_max2_r.activation	glut_max2_r.fiber_length	glut_max3_r.activation	glut_max3_r.fiber_length	iliacus_r.activation	iliacus_r.fiber_length	psoas_r.activation	psoas_r.fiber_length	quad_fem_r.activation	quad_fem_r.fiber_length	gem_r.activation	gem_r.fiber_length	peri_r.activation	peri_r.fiber_length	rect_fem_r.activation	rect_fem_r.fiber_length	vas_med_r.activation	vas_med_r.fiber_length	vas_int_r.activation	vas_int_r.fiber_length	vas_lat_r.activation	vas_lat_r.fiber_length	med_gas_r.activation	med_gas_r.fiber_length	lat_gas_r.activation	lat_gas_r.fiber_length	soleus_r.activation	soleus_r.fiber_length	tib_post_r.activation	tib_post_r.fiber_length	flex_dig_r.activation	flex_dig_r.fiber_length	flex_hal_r.activation	flex_hal_r.fiber_length	tib_ant_r.activation	tib_ant_r.fiber_length	per_brev_r.activation	per_brev_r.fiber_length	per_long_r.activation	per_long_r.fiber_length	per_tert_r.activation	per_tert_r.fiber_length	ext_dig_r.activation	ext_dig_r.fiber_length	ext_hal_r.activation	ext_hal_r.fiber_length	ercspn_r.activation	ercspn_r.fiber_length	ercspn_l.activation	ercspn_l.fiber_length	intobl_r.activation	intobl_r.fiber_length	intobl_l.activation	intobl_l.fiber_length	extobl_r.activation	extobl_r.fiber_length	extobl_l.activation	extobl_l.fiber_length
      0.03405044	     30.00000000	     -0.00000000	      0.00000000	     -0.00000000	    -14.05152161	      6.18008605	     17.24171468	     -0.42514604	      0.99821602	      0.33957559	     31.70411929	     -9.96787932	    -11.57299333	    -24.86008558	    -24.86008558	      7.80736879	      7.89643262	      0.00001318	     52.13915936	      0.00000000	     -9.99811353	   -101.98648811	   -101.98648811	      6.49999992	      0.00000000	     -0.00000000	    -11.29933918	     -6.80238302	    -11.92302039	      0.00000000	     -8.91003344	      0.00000000	     72.06682857	     46.23690339	      0.00000000	      4.87402477	     -0.00000000	     -8.91003344	     -0.00000000	     72.06682857	     46.23690339	      0.00000000	      4.87402477	      0.00000000	      0.00000000	      0.00000000	     -0.00000000	    -11.22257269	    -67.53659011	   -141.19802547	      0.18803482	     -2.23820506	      0.39147276	    250.31181816	     22.57436014	   -341.27021142	   -462.46468415	   -462.46468415	    709.40007086	    665.57909494	     -0.00000000	     -0.00000000	      0.00000000	     -0.00000000	     -0.00000000	      0.00000000	      0.00000000	      0.00000000	     -0.00000000	    -41.49094768	     74.35055722	    162.03544812	     -0.00000000	      0.00000000	      0.00000000	     -0.00000000	     -0.00000000	     -0.00000000	      0.00000000	     -0.00000000	     -0.00000000	     -0.00000000	      0.00000000	     -0.00000000	     -0.00000000	      0.00000000	      0.17457732	      0.05175245	      0.11994011	      0.08708724	      0.12672935	      0.06663075	      0.17790031	      0.07235247	      0.18863652	      0.06032517	      0.20458768	      0.03723433	      0.21836355	      0.07633301	      0.47496798	      0.24395577	      0.34765609	      0.11865492	      0.24758568	      0.17385849	      0.03490321	      0.46182436	      0.03477812	      0.11168861	      0.03477812	      0.13206783	      0.03477812	      0.07777949	      0.03477812	      0.10602870	      0.03613587	      0.13578342	      0.06090882	      0.08916045	      0.03477812	      0.06976522	      0.03477812	      0.35233025	      0.06185611	      0.09552140	      0.05726301	      0.10867963	      0.04855596	      0.13634922	      0.03477812	      0.08939865	      0.03477812	      0.08213167	      0.11210284	      0.04658717	      0.18136037	      0.01886585	      0.17872264	      0.01790888	      0.13876977	      0.10104858	      0.09802824	      0.07365718	      0.12458307	      0.07510676	      0.10084618	      0.06918791	      0.30163754	      0.05497386	      0.30633740	      0.05889236	      0.36323675	      0.04935569	      0.01000000	      0.03563635	      0.01000000	      0.03266553	      0.01000000	      0.04155398	      0.23224263	      0.09579415	      0.01000000	      0.05736723	      0.01000000	      0.05759489	      0.01000000	      0.08476158	      0.01000000	      0.10588346	      0.01000000	      0.11435565	      0.13450539	      0.13498712	      0.06229714	      0.12192492	      0.03477812	      0.09397042	      0.07027878	      0.08549141	      0.15998260	      0.13542753	      0.04702480	      0.10563718
      0.03411736	     30.00000000	     -0.00000000	      0.00000000	     -0.00000000	    -14.05227755	      6.17556611	     17.23218220	     -0.42513361	      0.99806643	      0.33960182	     31.72108823	     -9.96643730	    -11.59580777	    -24.89137747	    -24.89137747	      7.85465459	      7.94132684	      0.00001318	     52.13915936	      0.00000000	     -9.99811353	   -101.98648811	   -101.98648811	      6.49999992	      0.00000000	     -0.00000000	    -11.30212664	     -6.79740671	    -11.91209777	      0.00000000	     -8.91003344	      0.00000000	     72.06682857	     46.23690339	      0.00000000	      4.87402477	     -0.00000000	     -8.91003344	     -0.00000000	     72.06682857	     46.23690339	      0.00000000	      4.87402477	      0.00000000	      0.00000000	      0.00000000	     -0.00000000	    -11.37148424	    -67.55757435	   -143.71295268	      0.18333495	     -2.23266972	      0.39257223	    256.86308401	     20.52770117	   -340.61437017	   -472.80732429	   -472.80732429	    703.91149364	    676.24647996	     -0.00000000	     -0.00000000	      0.00000000	     -0.00000000	     -0.00000000	      0.00000000	      0.00000000	      0.00000000	     -0.00000000	    -41.82230474	     74.38363953	    164.42482799	     -0.00000000	      0.00000000	      0.00000000	     -0.00000000	     -0.00000000	     -0.00000000	      0.00000000	     -0.00000000	     -0.00000000	     -0.00000000	      0.00000000	      0.00000000	     -0.00000000	      0.00000000	      0.17686873	      0.05176860	      0.12107400	      0.08710101	      0.12723983	      0.06663881	      0.17952952	      0.07236997	      0.19022554	      0.06034004	      0.20591127	      0.03724414	      0.21830628	      0.07632395	      0.47500543	      0.24394836	      0.34763468	      0.11864665	      0.24758372	      0.17384973	      0.03488021	      0.46180480	      0.03475524	      0.11168113	      0.03475524	      0.13206407	      0.03475524	      0.07777391	      0.03475524	      0.10602581	      0.03611166	      0.13578359	      0.06094444	      0.08916491	      0.03475524	      0.06975814	      0.03475524	      0.35231989	      0.06229497	      0.09553141	      0.05756186	      0.10868832	      0.04851903	      0.13634854	      0.03475524	      0.08939542	      0.03475524	      0.08212894	      0.11198879	      0.04657472	      0.18113924	      0.01886055	      0.17856765	      0.01790992	      0.13890156	      0.10105780	      0.09848076	      0.07367569	      0.12516274	      0.07512488	      0.10129041	      0.06920655	      0.30228750	      0.05499384	      0.30698377	      0.05891216	      0.36403822	      0.04938244	      0.01000000	      0.03563731	      0.01000000	      0.03266685	      0.01000000	      0.04155821	      0.23219761	      0.09576426	      0.01000000	      0.05739122	      0.01000000	      0.05761791	      0.01000000	      0.08474670	      0.01000000	      0.10586468	      0.01000000	      0.11433525	      0.13450294	      0.13498456	      0.06246631	      0.12193160	      0.03475524	      0.09396377	      0.07022495	      0.08549268	      0.15996486	      0.13541609	      0.04710946	      0.10564201
      0.03418427	     30.00000000	     -0.00000000	      0.00000000	     -0.00000000	    -14.05304344	      6.17104482	     17.22248175	     -0.42512150	      0.99791722	      0.33962813	     31.73849471	     -9.96513172	    -11.61857667	    -24.92336012	    -24.92336012	      7.90157542	      7.98692711	      0.00001318	     52.13915936	      0.00000000	     -9.99811353	   -101.98648811	   -101.98648811	      6.49999992	      0.00000000	     -0.00000000	    -11.30493627	     -6.79242829	    -11.90101558	      0.00000000	     -8.91003344	      0.00000000	     72.06682857	     46.23690339	      0.00000000	      4.87402477	     -0.00000000	     -8.91003344	     -0.00000000	     72.06682857	     46.23690339	      0.00000000	      4.87402477	      0.00000000	      0.00000000	      0.00000000	     -0.00000000	    -11.51965587	    -67.57707793	   -146.21775538	      0.17865602	     -2.22716063	      0.39367059	    263.38699993	     18.49690092	   -339.90789944	   -483.09934054	   -483.09934054	    698.50115694	    686.64098467	     -0.00000000	     -0.00000000	      0.00000000	     -0.00000000	     -0.00000000	      0.00000000	      0.00000000	      0.00000000	     -0.00000000	    -42.15355872	     74.41395089	    166.80429342	     -0.00000000	      0.00000000	      0.00000000	     -0.00000000	     -0.00000000	     -0.00000000	      0.00000000	     -0.00000000	     -0.00000000	     -0.00000000	      0.00000000	      0.00000000	     -0.00000000	      0.00000000	      0.17915645	      0.05178486	      0.12221546	      0.08711491	      0.12777217	      0.06664699	      0.18113727	      0.07238746	      0.19179803	      0.06035492	      0.20723295	      0.03725398	      0.21824892	      0.07631490	      0.47504244	      0.24394097	      0.34761315	      0.11863841	      0.24758167	      0.17384072	      0.03485723	      0.46178437	      0.03473239	      0.11167366	      0.03473239	      0.13206046	      0.03473239	      0.07776852	      0.03473239	      0.10602308	      0.03608746	      0.13578382	      0.06097340	      0.08916933	      0.03473239	      0.06975101	      0.03473239	      0.35230953	      0.06274689	      0.09554158	      0.05787880	      0.10869722	      0.04848214	      0.13634801	      0.03473239	      0.08939209	      0.03473239	      0.08212614	      0.11187490	      0.04656227	      0.18091850	      0.01885515	      0.17841291	      0.01791095	      0.13903828	      0.10106714	      0.09895094	      0.07369455	      0.12576092	      0.07514340	      0.10175271	      0.06922551	      0.30293465	      0.05501333	      0.30762712	      0.05893140	      0.36483766	      0.04940893	      0.01000000	      0.03563822	      0.01000000	      0.03266810	      0.01000000	      0.04156225	      0.23215242	      0.09573438	      0.01000000	      0.05741553	      0.01000000	      0.05764117	      0.01000000	      0.08473196	      0.01000000	      0.10584591	      0.01000000	      0.11431485	      0.13450047	      0.13498197	      0.06263842	      0.12193832	      0.03473239	      0.09395716	      0.07017050	      0.08549391	      0.15994700	      0.13540456	      0.04719612	      0.10564687
      0.03426535	     30.00000000	     -0.00000000	      0.00000000	     -0.00000000	    -14.05398462	      6.16556524	     17.21050488	     -0.42510725	      0.99773692	      0.33966010	     31.76016752	     -9.96373112	    -11.64609737	    -24.96303094	    -24.96303094	      7.95794156	      8.04309961	      0.00001318	     52.13915936	      0.00000000	     -9.99811353	   -101.98648811	   -101.98648811	      6.49999992	      0.00000000	     -0.00000000	    -11.30837006	     -6.78639394	    -11.88737583	      0.00000000	     -8.91003344	      0.00000000	     72.06682857	     46.23690339	      0.00000000	      4.87402477	     -0.00000000	     -8.91003344	     -0.00000000	     72.06682857	     46.23690339	      0.00000000	      4.87402477	      0.00000000	      0.00000000	      0.00000000	     -0.00000000	    -11.69812608	    -67.59829814	   -149.23663212	      0.17302023	     -2.22052931	      0.39499925	    271.25221175	     16.05867707	   -338.99152472	   -495.53826662	   -495.53826662	    692.00469048	    699.09010609	     -0.00000000	     -0.00000000	      0.00000000	     -0.00000000	     -0.00000000	      0.00000000	      0.00000000	      0.00000000	     -0.00000000	    -42.55436072	     74.44634869	    169.67171946	     -0.00000000	      0.00000000	      0.00000000	     -0.00000000	     -0.00000000	     -0.00000000	      0.00000000	     -0.00000000	     -0.00000000	     -0.00000000	      0.00000000	      0.00000000	     -0.00000000	      0.00000000	      0.18192240	      0.05180471	      0.12360830	      0.08713191	      0.12844637	      0.06665708	      0.18305688	      0.07240863	      0.19368102	      0.06037295	      0.20883162	      0.03726597	      0.21817928	      0.07630396	      0.47508668	      0.24393205	      0.34758691	      0.11862847	      0.24757907	      0.17382946	      0.03482942	      0.46175844	      0.03470473	      0.11166461	      0.03470473	      0.13205627	      0.03470473	      0.07776223	      0.03470473	      0.10602002	      0.03605818	      0.13578418	      0.06099952	      0.08917463	      0.03470473	      0.06974231	      0.03470473	      0.35229698	      0.06331191	      0.09555413	      0.05828634	      0.10870825	      0.04843750	      0.13634757	      0.03470473	      0.08938789	      0.03470473	      0.08212263	      0.11173713	      0.04654719	      0.18065155	      0.01884847	      0.17822586	      0.01791221	      0.13921069	      0.10107863	      0.09954419	      0.07371785	      0.12651023	      0.07516636	      0.10233699	      0.06924893	      0.30371490	      0.05503630	      0.30840250	      0.05895397	      0.36580350	      0.04944067	      0.01000000	      0.03563923	      0.01000000	      0.03266953	      0.01000000	      0.04156690	      0.23209744	      0.09569818	      0.01000000	      0.05744540	      0.01000000	      0.05766970	      0.01000000	      0.08471425	      0.01000000	      0.10582316	      0.01000000	      0.11429013	      0.13449743	      0.13497882	      0.06285080	      0.12194651	      0.03470473	      0.09394919	      0.07010370	      0.08549532	      0.15992521	      0.13539047	      0.04730379	      0.10565278
